# xmcd
#
# Track frame offsets:
#        183
#        12748
#        33355
#        43295
#        54640
#        75908
#        101090
#        120208
#        140020
#        150883
#        168593
#        190833
#        207403
#        233745
#        269865
#        287225
#
# Disc length: 4182 seconds
#
# Revision: 0
# Processed by: cddbd v1.5.1PL2 Copyright (c) Steve Scherf et al.
# Submitted via: ExactAudioCopy v0.95a5
#
DISCID=e3105410
DTITLE=LED ZEPPELININ - BEST SELECTION
DYEAR=1900
DGENRE=Hard Rock
TTITLE0=GOOD TIMES BAD TIMES
TTITLE1=YOUR TIMES IS GONNA COME
TTITLE2=BLACK MOUNTAIN SIDE
TTITLE3=COMMUNICATION BREAKDOWN
TTITLE4=I CAN'T QUIT YOU BABY
TTITLE5=WHOTE LOTTA LOVE
TTITLE6=HEARTBREAKER
TTITLE7=MOBY DICK
TTITLE8=IMMIGRANT SONG
TTITLE9=FRIENDS
TTITLE10=BLACK DOG
TTITLE11=ROCK AND ROLL
TTITLE12=THE BATTLE OF EVERMORE
TTITLE13=STAIRWAY TO HEAVEN
TTITLE14=CELEBRATION DAY
TTITLE15=THE SONG REMAINS THE SAME
EXTD=
EXTT0=
EXTT1=
EXTT2=
EXTT3=
EXTT4=
EXTT5=
EXTT6=
EXTT7=
EXTT8=
EXTT9=
EXTT10=
EXTT11=
EXTT12=
EXTT13=
EXTT14=
EXTT15=
PLAYORDER=
